# xmcd CD database file
#
# Track frame offsets:
#	150
#	18149
#	42784
#	64639
#	83945
#	99392
#	118636
#	130976
#	151550
#	170193
#
# Disc length: 2529 seconds
#
# Revision: 0
# Processed by: cddbd v1.4PL0 Copyright (c) Steve Scherf et al.
# Submitted via: CDex 1.50
#
DISCID=7309df0a
DTITLE=Richard Dwarsky - The Path to You
DYEAR=2000
DGENRE=New Age
TTITLE0=A Glimmer of hope
TTITLE1=If Only
TTITLE2=The Path to You
TTITLE3=La Contena 
TTITLE4=The Warm Welcome
TTITLE5=A Greener Blue
TTITLE6=On Fertile Ground
TTITLE7=The Boy With the Driftwood Stick
TTITLE8=The Final Flight
TTITLE9=In the Hearts of the Smallest Creatures
EXTD=YEAR: 2000
EXTT0=
EXTT1=
EXTT2=
EXTT3=
EXTT4=
EXTT5=
EXTT6=
EXTT7=
EXTT8=
EXTT9=
PLAYORDER=
